# xmcd
#
# Track frame offsets:
#	150
#	11530
#	24340
#	43040
#	59700
#	71105
#	83900
#	102605
#
# Disc length: 1592 seconds
#
# Revision: 1
# Processed by: cddbd v1.5.2PL0 Copyright (c) Steve Scherf et al.
# Submitted via: audiograbber 1.83.01
#
DISCID=6b063608
DTITLE=Various Artist - RCA527
DYEAR=1900
DGENRE=Karaoke-Duet
TTITLE0=Duet-Mandrell, B. and D. Houston w/Vocal - After Closing Time
TTITLE1=Duet-Carter, Anita and W. Jennings w/Vocal - I Got You
TTITLE2=Duet-Gayle, C. and E. Rabbitt w/Vocal - You And I
TTITLE3=Duet-Rogers, K. and D. West w/Vocal - All I Ever Need Is You
TTITLE4=Duet-Mandrell, B. and D. Houston - After Closing Time
TTITLE5=Duet-Carter, Anita and Waylon Jennings - I Got You
TTITLE6=Duet-Gayle, C. and E. Rabbitt - You And I
TTITLE7=Duet-Rogers, K. and Dottie West - All I Ever Need Is You
EXTD=
EXTT0=
EXTT1=
EXTT2=
EXTT3=
EXTT4=
EXTT5=
EXTT6=
EXTT7=
PLAYORDER=
